# xmcd
#
# Track frame offsets:
#	150
#	13074
#	28279
#	42967
#	56804
#	71400
#	85594
#	99940
#	111789
#	126672
#	139007
#	152912
#	166411
#	180327
#	195250
#	208964
#
# Disc length: 2943 seconds
#
# Revision: 1
# Processed by: cddbd v1.5.2PL0 Copyright (c) Steve Scherf et al.
# Submitted via: audiograbber 1.83.01
#
DISCID=dc0b7d10
DTITLE=Gene Autry - Yellow Rose Of Texas
DYEAR=1988
DGENRE=Country
TTITLE0=Gene Autry - Yellow Rose Of Texas
TTITLE1=Gene Autry - The Little Ranch House On The Old Circle B
TTITLE2=Gene Autry - Louisiana Moon
TTITLE3=Gene Autry - Cow Boy's Heaven
TTITLE4=Gene Autry - Kentucky Lullaby
TTITLE5=Gene Autry - Black Bottom Blues
TTITLE6=Gene Autry - That Ramshackle Shack
TTITLE7=Gene Autry - Back Home In The Blue Ridge Mountains
TTITLE8=Gene Autry - Do Right Daddy Blues
TTITLE9=Gene Autry - Money Ain't No Use Anyway
TTITLE10=Gene Autry - That's How I Got My Start
TTITLE11=Gene Autry - Bear Cat Papa Blues
TTITLE12=Gene Autry - Don't Do Me That Way
TTITLE13=Gene Autry - High Steppin' Mama
TTITLE14=Gene Autry - There's A Good Gal In The Mountains
TTITLE15=Gene Autry and Jimmy Long - My Dreaming Of You
EXTD=
EXTT0=
EXTT1=
EXTT2=
EXTT3=
EXTT4=
EXTT5=
EXTT6=
EXTT7=
EXTT8=
EXTT9=
EXTT10=
EXTT11=
EXTT12=
EXTT13=
EXTT14=
EXTT15=
PLAYORDER=
